<?xml version="1.0" encoding="utf-8"?>
<!-- Generator: Adobe Illustrator 21.0.0, SVG Export Plug-In . SVG Version: 6.00 Build 0)  -->
<svg version="1.1" id="Layer_1" xmlns="http://www.w3.org/2000/svg" xmlns:xlink="http://www.w3.org/1999/xlink" x="0px" y="0px"
	 viewBox="0 0 250 250" style="enable-background:new 0 0 250 250;" xml:space="preserve">
<style type="text/css">
	.st0{fill:#C6FF00;}
	.st1{fill:#006150;}
	.st2{fill:#FFFFFF;}
	.st3{fill:#6EAB24;}
</style>
<g>
	<g>
		<g>
			<g>
				<path class="st0" d="M150.2,95.8h5.9c2.3,0,4.2-1.9,4.2-4.2c0-2.3-1.9-4.2-4.2-4.2h-5.9c-2.3,0-4.2,1.9-4.2,4.2
					C145.9,93.9,147.9,95.8,150.2,95.8z"/>
				<path class="st1" d="M229.2,199.6l-5.3-13c-1.7-3.8-5.5-6.4-9.8-6.4h-4.7V95.8h9.1c4,0,7.4-2.8,8.3-6.6c0.8-3.8-1.1-7.9-4.7-9.6
					l-88.3-41.8c-5.5-2.8-12.1-2.8-18,0L27.1,79.6c-3.6,1.7-5.5,5.5-4.7,9.6c0.8,4,4.2,6.8,8.3,6.8h8.9v84.5h-3.8
					c-4.2,0-8.1,2.5-9.8,6.4l-5.3,12.7c-1.3,3.4-0.8,7,1.1,10c1.9,3,5.3,4.7,8.7,4.7h188.9c3.4,0,6.8-1.7,8.7-4.7
					C230.2,206.8,230.6,203,229.2,199.6z M30.9,87.3l88.5-41.8c3.6-1.7,7.4-1.7,10.8,0l88.5,41.8h-13.6c-2.3,0-4.2,1.9-4.2,4.2
					c0,0.4,0,0.6,0.2,0.8c0,0.2-0.2,0.6-0.2,0.8v87h-4.6v0.2h-54.8v-0.4H133v0.4h-17v-0.4h-8.5v0.4H99v-0.4h-8.5v0.4h-17v-0.4h-8.5
					v0.4h-17V95.8h83c2.3,0,4.2-1.9,4.2-4.2c0-2.3-1.9-4.2-4.2-4.2H30.9z M221.1,204.9c-0.2,0.2-0.8,1.1-1.7,1.1H30.5
					c-1.1,0-1.5-0.6-1.7-1.1c-0.2-0.2-0.6-1.1-0.2-2.1l5.3-12.5c0.4-0.8,1.3-1.3,2.1-1.3h178.3c0.8,0,1.7,0.4,2.1,1.3l5.3,12.7
					C221.7,203.8,221.3,204.7,221.1,204.9z"/>
			</g>
		</g>
	</g>
	<rect x="65.1" y="180.1" width="8.5" height="0.4"/>
	<rect x="90.5" y="180.1" class="st2" width="8.5" height="0.4"/>
	<rect x="107.5" y="180.1" class="st2" width="8.5" height="0.4"/>
	<rect x="133" y="180.1" class="st2" width="8.5" height="0.4"/>
	<rect x="48.1" y="178.2" class="st1" width="152.7" height="6.2"/>
	<g>
		<path class="st3" d="M83.5,108.1c-9.1,0-16.6,7.5-16.6,16.6v53.5h8.3v-53.5c0-4.6,3.7-8.3,8.3-8.3c4.6,0,8.3,3.7,8.3,8.3v53.5h8.3
			v-53.5C100.1,115.6,92.6,108.1,83.5,108.1z M125,108.1c-9.1,0-16.6,7.5-16.6,16.6v53.5h8.3v-53.5c0-4.6,3.7-8.3,8.3-8.3
			c4.6,0,8.3,3.7,8.3,8.3v53.5h8.3v-53.5C141.7,115.6,134.2,108.1,125,108.1z M166.6,108.1c-9.1,0-16.6,7.5-16.6,16.6v53.5h8.3
			v-53.5c0-4.6,3.7-8.3,8.3-8.3c4.6,0,8.3,3.7,8.3,8.3v53.5h8.3v-53.5C183.2,115.6,175.8,108.1,166.6,108.1z"/>
	</g>
</g>
</svg>
