<?xml version="1.0" encoding="utf-8"?>
<!-- Generator: Adobe Illustrator 21.0.0, SVG Export Plug-In . SVG Version: 6.00 Build 0)  -->
<svg version="1.1" id="Layer_1" xmlns="http://www.w3.org/2000/svg" xmlns:xlink="http://www.w3.org/1999/xlink" x="0px" y="0px"
	 viewBox="0 0 250 250" style="enable-background:new 0 0 250 250;" xml:space="preserve">
<style type="text/css">
	.st0{fill:#C6FF00;}
	.st1{fill:#006150;}
	.st2{fill:#FFFFFF;}
	.st3{fill:#6EAB24;}
</style>
<g>
	<g>
		<g>
			<path class="st0" d="M125.7,199.9c-0.5,0-0.9-0.2-1.3-0.5c-0.3-0.3-0.5-0.8-0.5-1.3c0-0.5,0.2-0.9,0.5-1.3
				c0.3-0.3,0.8-0.5,1.3-0.5s0.9,0.2,1.3,0.5c0.3,0.3,0.5,0.8,0.5,1.3c0,0.5-0.2,0.9-0.5,1.3C126.6,199.7,126.2,199.9,125.7,199.9z"
				/>
		</g>
		<g>
			<path class="st0" d="M125.7,208.3c-0.5,0-0.9-0.2-1.3-0.5c-0.3-0.3-0.5-0.8-0.5-1.3s0.2-0.9,0.5-1.3c0.3-0.3,0.8-0.5,1.3-0.5
				s0.9,0.2,1.3,0.5c0.3,0.3,0.5,0.8,0.5,1.3s-0.2,0.9-0.5,1.3C126.7,208.1,126.2,208.3,125.7,208.3z"/>
		</g>
	</g>
	<g>
		<g>
			<path class="st0" d="M113.1,204.1c-0.5,0-0.9-0.2-1.3-0.5c-0.3-0.3-0.5-0.8-0.5-1.3c0-0.5,0.2-0.9,0.5-1.3
				c0.3-0.3,0.8-0.5,1.3-0.5c0.5,0,0.9,0.2,1.3,0.5c0.3,0.3,0.5,0.8,0.5,1.3c0,0.5-0.2,0.9-0.5,1.3
				C114,203.9,113.6,204.1,113.1,204.1z"/>
		</g>
		<g>
			<path class="st0" d="M138.3,204.1c-0.5,0-0.9-0.2-1.3-0.5c-0.3-0.3-0.5-0.8-0.5-1.3c0-0.5,0.2-0.9,0.5-1.3
				c0.3-0.3,0.8-0.5,1.3-0.5c0.5,0,0.9,0.2,1.3,0.5c0.3,0.3,0.5,0.8,0.5,1.3c0,0.5-0.2,0.9-0.5,1.3
				C139.3,203.9,138.8,204.1,138.3,204.1z"/>
		</g>
	</g>
	<g>
		<path class="st1" d="M170.2,212.3c-2.7-6.7-8.6-12.7-16.5-17c-7.6-4.1-16.6-6.3-26.1-6.5H124v0c-9.5,0.2-18.5,2.5-26.1,6.5
			c-7.9,4.2-13.8,10.3-16.5,17c-0.2,0.5-0.2,1.2,0.2,1.7c0.3,0.5,0.9,0.8,1.5,0.8h85.6c0.6,0,1.1-0.3,1.5-0.8
			C170.3,213.5,170.4,212.9,170.2,212.3z M85.8,211.2c6.2-11.2,22.1-18.9,40-18.9c17.9,0,33.8,7.7,40,18.9H85.8z"/>
	</g>
	<path class="st1" d="M153.3,110.3l-25.5,25.5v-1.3c0-1.6-1.3-2.8-2.8-2.8s-2.8,1.3-2.8,2.8v54.8h5.7v-45.4l29.5-29.5
		C159.9,112,156.8,107.5,153.3,110.3z"/>
	<path class="st3" d="M77.4,70c-5.6,0-10.9,2.4-14.2,6.3c-0.9,1-0.9,2.5,0,3.6c3.2,4,8.5,6.3,14.2,6.3c5.6,0,10.9-2.4,14.2-6.3
		c0.9-1,0.9-2.5,0-3.6C88.3,72.4,83.1,70,77.4,70z M77.4,80.6c-3,0-5.7-0.9-7.9-2.5c2.1-1.6,4.9-2.5,7.9-2.5s5.7,0.9,7.9,2.5
		C83.2,79.7,80.4,80.6,77.4,80.6z"/>
	<path class="st3" d="M84.5,48.5c-4-4-9.4-6-14.5-5.5c-1.3,0.1-2.4,1.2-2.5,2.5C67,50.6,69.1,56,73.1,60c4,4,9.4,6,14.5,5.5
		c1.3-0.1,2.4-1.2,2.5-2.5C90.6,57.8,88.5,52.4,84.5,48.5z M77.1,55.9c-2.1-2.1-3.4-4.7-3.8-7.3c2.6,0.4,5.2,1.7,7.3,3.8
		c2.1,2.1,3.4,4.7,3.8,7.3C81.7,59.4,79.1,58,77.1,55.9z"/>
	<path class="st3" d="M101.9,66c0.5,0.4,1.2,0.6,1.8,0.6c0.6,0,1.3-0.2,1.8-0.6c4.2-3.4,6.7-9.1,6.7-15s-2.5-11.6-6.7-15
		c-1-0.9-2.5-0.9-3.6,0c-4.2,3.4-6.7,9.1-6.7,15S97.7,62.5,101.9,66z M103.7,42.1c1.8,2.3,2.8,5.5,2.8,8.8s-1,6.5-2.8,8.8
		c-1.8-2.3-2.8-5.5-2.8-8.8S101.9,44.5,103.7,42.1z"/>
	<path class="st3" d="M186.7,119.6c-3.2-4-8.5-6.3-14.2-6.3c-5.6,0-10.9,2.4-14.2,6.3c-0.9,1-0.9,2.5,0,3.6c3.2,4,8.5,6.3,14.2,6.3
		s10.9-2.4,14.2-6.3C187.6,122.1,187.6,120.6,186.7,119.6z M172.6,123.8c-3,0-5.7-0.9-7.9-2.5c2.1-1.6,4.9-2.5,7.9-2.5
		s5.7,0.9,7.9,2.5C178.3,122.9,175.5,123.8,172.6,123.8z"/>
	<path class="st3" d="M144.5,109.2c0.5,0.4,1.2,0.6,1.8,0.6c0.6,0,1.3-0.2,1.8-0.6c4.2-3.4,6.7-9.1,6.7-15c0-6-2.5-11.6-6.7-15
		c-1-0.9-2.5-0.9-3.6,0c-4.2,3.4-6.7,9.1-6.7,15C137.7,100.2,140.3,105.8,144.5,109.2z M146.3,85.4c1.8,2.3,2.8,5.5,2.8,8.8
		c0,3.3-1,6.5-2.8,8.8c-1.8-2.3-2.8-5.5-2.8-8.8C143.4,90.8,144.5,87.7,146.3,85.4z"/>
	<path class="st3" d="M161.4,105.2c0.2,0.7,0.5,1.2,1.1,1.6c0.5,0.4,1.1,0.6,1.8,0.6c5.4-0.2,10.8-3.3,14.4-8.1
		c3.6-4.8,4.9-10.8,3.6-16.1c-0.3-1.3-1.5-2.2-2.9-2.1c-5.4,0.2-10.8,3.3-14.4,8.1C161.4,93.9,160,99.9,161.4,105.2z M177,87.1
		c0.1,3-1,6.1-3,8.8c-2,2.7-4.7,4.6-7.5,5.4c-0.1-3,1-6.1,3-8.8C171.5,89.8,174.2,87.9,177,87.1z"/>
	<path class="st1" d="M125,66.8c-1.6,0-2.8,1.3-2.8,2.8v22.9l-27-27c-2.9-2.1-6,1.7-4.1,3.9l31.1,31.1v15.7l-9.3-9.3
		c-1.1-1.1-2.9-1.1-4,0c-1.1,1.1-1.1,2.9,0,4l14.2,14.2c0,0,0,0,0,0c0.1,0.1,0.1,0.1,0.2,0.2c0,0,0.1,0,0.1,0.1c0,0,0.1,0.1,0.1,0.1
		c0,0,0.1,0,0.1,0.1c0,0,0.1,0,0.1,0.1c0,0,0.1,0,0.1,0.1c0,0,0.1,0,0.1,0.1c0,0,0.1,0,0.1,0c0,0,0.1,0,0.1,0c0,0,0.1,0,0.1,0
		c0,0,0.1,0,0.1,0c0,0,0.1,0,0.1,0c0,0,0.1,0,0.1,0c0.1,0,0.2,0,0.3,0s0.2,0,0.3,0c0,0,0.1,0,0.1,0c0,0,0.1,0,0.1,0c0,0,0.1,0,0.1,0
		c0,0,0.1,0,0.1,0c0,0,0.1,0,0.1,0c0,0,0.1,0,0.1,0c0,0,0.1,0,0.1-0.1c0,0,0.1,0,0.1-0.1c0,0,0.1,0,0.1-0.1c0,0,0.1-0.1,0.1-0.1
		c0,0,0.1-0.1,0.1-0.1c0,0,0.1-0.1,0.1-0.1c0.1,0,0.1-0.1,0.1-0.1c0,0,0,0,0.1-0.1c0,0,0,0,0.1-0.1c0,0,0.1-0.1,0.1-0.1
		c0,0,0.1-0.1,0.1-0.1c0,0,0-0.1,0.1-0.1c0,0,0.1-0.1,0.1-0.1c0,0,0-0.1,0.1-0.1c0,0,0-0.1,0.1-0.1c0,0,0-0.1,0.1-0.1
		c0,0,0-0.1,0-0.1c0,0,0-0.1,0-0.1c0,0,0-0.1,0-0.1c0,0,0-0.1,0-0.1c0-0.1,0-0.1,0-0.2c0,0,0-0.1,0-0.1c0-0.1,0-0.2,0-0.3V99.4
		c0,0,0,0,0,0V69.6C127.8,68.1,126.6,66.8,125,66.8z"/>
</g>
</svg>
